<svg xmlns="http://www.w3.org/2000/svg" width="1200" height="630" viewBox="0 0 1200 630">
  <rect width="1200" height="630" fill="#fcf9fc"/>
  <path d="M790-30c186 65 308 210 292 365-15 146-152 253-342 273" fill="none" stroke="#d9c4df" stroke-width="2"/>
  <path d="M860-45c196 87 289 233 249 370-37 130-177 213-354 218" fill="none" stroke="#eadfea" stroke-width="2"/>
  <path d="M815 65c139 40 238 139 238 251 0 108-93 198-229 232" fill="none" stroke="#b995c5" stroke-width="2"/>
  <text x="82" y="252" fill="#17131a" font-family="Georgia, serif" font-size="88" font-weight="700">Qingni Wang</text>
  <text x="86" y="317" fill="#514b54" font-family="Arial, sans-serif" font-size="23" letter-spacing="2.5">TRUSTWORTHY AI · UNCERTAINTY</text>
  <line x1="86" y1="357" x2="520" y2="357" stroke="#765083" stroke-width="2"/>
  <text x="86" y="405" fill="#765083" font-family="Arial, sans-serif" font-size="24" letter-spacing="4">cece1031.github.io</text>
  <g transform="translate(760 118) scale(5.8)">
    <rect x="2" y="2" width="60" height="60" rx="17" fill="#fff" stroke="#765083" stroke-width="2.2"/>
    <path d="M14 27 12.5 11l13 8.3A25 25 0 0 1 32 18c2.3 0 4.5.4 6.5 1.3l13-8.3L50 27c2.1 3 3 6.3 3 10 0 11.2-9.4 18-21 18S11 48.2 11 37c0-3.7.9-7 3-10Z" fill="#765083" stroke="#17131a" stroke-width="2.1" stroke-linejoin="round"/>
    <path d="m17 17 7 4.6-6.2 3.2Zm30 0-7 4.6 6.2 3.2Z" fill="#fcf9fc" opacity=".8"/>
    <ellipse cx="24" cy="35" rx="3.2" ry="2.2" fill="#fcf9fc"/>
    <ellipse cx="40" cy="35" rx="3.2" ry="2.2" fill="#fcf9fc"/>
    <path d="m29 40.8 3 2.5 3-2.5Z" fill="#fcf9fc"/>
    <path d="M32 43.3v3.3m0 0c-2.2 0-3.7-.8-4.6-2m4.6 2c2.2 0 3.7-.8 4.6-2" fill="none" stroke="#fcf9fc" stroke-width="2" stroke-linecap="round"/>
  </g>
</svg>
